<?xml version="1.0" encoding="utf-8"?>
<!-- Svg Vector Icons : http://www.onlinewebfonts.com/icon -->
<!DOCTYPE svg PUBLIC "-//W3C//DTD SVG 1.1//EN" "http://www.w3.org/Graphics/SVG/1.1/DTD/svg11.dtd">
<svg version="1.1" xmlns="http://www.w3.org/2000/svg" xmlns:xlink="http://www.w3.org/1999/xlink" x="0px" y="0px" viewBox="0 0 256 256" enable-background="new 0 0 256 256" xml:space="preserve">
<metadata> Svg Vector Icons : http://www.onlinewebfonts.com/icon </metadata>
<g><g><g><g><path fill="#000000" d="M118.5,101.3c-0.8-0.6-1.8-0.9-2.8-0.9c-0.7,0-1.5,0.2-2.2,0.5c-1.6,0.8-2.6,2.5-2.6,4.3v44c0,1.8,1,3.4,2.6,4.3c1.6,0.8,3.5,0.7,5-0.4l30.2-22c1.2-0.9,2-2.3,2-3.9c0-1.5-0.7-3-2-3.9L118.5,101.3z"/><path fill="#000000" d="M10,44.5v167h236v-167H10z M154.9,139.5l-30.2,22c-2.6,1.9-5.8,2.9-9,2.9c-2.4,0-4.8-0.6-6.9-1.7c-5.2-2.6-8.3-7.8-8.3-13.6v-44c0-5.8,3.2-11,8.3-13.6c5.1-2.6,11.3-2,15.9,1.3l30.2,22c3.9,2.9,6.3,7.5,6.3,12.3C161.2,132,158.8,136.7,154.9,139.5z"/></g></g><g></g><g></g><g></g><g></g><g></g><g></g><g></g><g></g><g></g><g></g><g></g><g></g><g></g><g></g><g></g></g></g>
</svg>